<svg width="67" height="56" viewBox="0 0 67 56" fill="none" xmlns="http://www.w3.org/2000/svg">
<path fill-rule="evenodd" clip-rule="evenodd" d="M0 52.8889C0 52.0638 0.32086 51.2724 0.891994 50.689C1.46313 50.1056 2.23775 49.7778 3.04545 49.7778H63.9545C64.7622 49.7778 65.5369 50.1056 66.108 50.689C66.6791 51.2724 67 52.0638 67 52.8889C67 53.714 66.6791 54.5053 66.108 55.0888C65.5369 55.6722 64.7622 56 63.9545 56H3.04545C2.23775 56 1.46313 55.6722 0.891994 55.0888C0.32086 54.5053 0 53.714 0 52.8889ZM0 28C0 27.1749 0.32086 26.3836 0.891994 25.8001C1.46313 25.2167 2.23775 24.8889 3.04545 24.8889H63.9545C64.7622 24.8889 65.5369 25.2167 66.108 25.8001C66.6791 26.3836 67 27.1749 67 28C67 28.8251 66.6791 29.6164 66.108 30.1999C65.5369 30.7833 64.7622 31.1111 63.9545 31.1111H3.04545C2.23775 31.1111 1.46313 30.7833 0.891994 30.1999C0.32086 29.6164 0 28.8251 0 28ZM0 3.11111C0 2.28599 0.32086 1.49467 0.891994 0.911224C1.46313 0.327777 2.23775 0 3.04545 0H63.9545C64.7622 0 65.5369 0.327777 66.108 0.911224C66.6791 1.49467 67 2.28599 67 3.11111C67 3.93623 66.6791 4.72755 66.108 5.311C65.5369 5.89444 64.7622 6.22222 63.9545 6.22222H3.04545C2.23775 6.22222 1.46313 5.89444 0.891994 5.311C0.32086 4.72755 0 3.93623 0 3.11111Z" fill="#66FCF1"/>
</svg>
